<svg xmlns="http://www.w3.org/2000/svg" xmlns:xlink="http://www.w3.org/1999/xlink" version="1.1" width="1000" height="1000" viewBox="0 0 1000 1000" xml:space="preserve">
<defs>
</defs>
<rect x="0" y="0" width="100%" height="100%" fill="rgba(0,0,0,0)"/>
<g transform="matrix(1.9556 0 0 1.9556 499.9992 499.9964)" id="907262">
<g style="" vector-effect="non-scaling-stroke">
		<g transform="matrix(1 0 0 1 -200.155 -8.28)" id="Layer_1">
<path style="stroke: none; stroke-width: 1; stroke-dasharray: none; stroke-linecap: butt; stroke-dashoffset: 0; stroke-linejoin: miter; stroke-miterlimit: 4; is-custom-font: none; font-file-url: none; fill: rgb(37,99,235); fill-rule: nonzero; opacity: 1;" transform=" translate(-51.28, -243.155)" d="M 102.56 400.31 l -86 -86 C 6.32 303.82 0 289 0 274.58 c 0 -6.69 3.77 -17.16 6.62 -23.15 L 86 86 Z" stroke-linecap="round"/>
</g>
		<g transform="matrix(1 0 0 1 -9.9 -200.155)" id="Layer_1">
<path style="stroke: none; stroke-width: 1; stroke-dasharray: none; stroke-linecap: butt; stroke-dashoffset: 0; stroke-linejoin: miter; stroke-miterlimit: 4; is-custom-font: none; font-file-url: none; fill: rgb(220,38,38); fill-rule: nonzero; opacity: 1;" transform=" translate(-241.535, -51.28)" d="M 397 102.56 l -86 -86 C 303.49 9 287.85 0 274.61 0 c -11.38 0 -22.55 2.29 -29.76 6.62 L 86.07 86 Z" stroke-linecap="round"/>
</g>
		<g transform="matrix(1 0 0 1 13.235 181.95)" id="Layer_1">
<polygon style="stroke: none; stroke-width: 1; stroke-dasharray: none; stroke-linecap: butt; stroke-dashoffset: 0; stroke-linejoin: miter; stroke-miterlimit: 4; is-custom-font: none; font-file-url: none; fill: rgb(220,38,38); fill-rule: nonzero; opacity: 1;" points="-59.56,69.485 148.88,69.485 148.88,-19.835 -6.62,-69.485 -148.88,-19.835 -59.56,69.485 "/>
</g>
		<g transform="matrix(1 0 0 1 -1.66 -1.655)" id="Layer_1">
<path style="stroke: none; stroke-width: 1; stroke-dasharray: none; stroke-linecap: butt; stroke-dashoffset: 0; stroke-linejoin: miter; stroke-miterlimit: 4; is-custom-font: none; font-file-url: none; fill: rgb(220,38,38); fill-rule: nonzero; opacity: 1;" transform=" translate(-249.775, -249.78)" d="M 86 354 c 0 26.54 3.33 33.05 16.53 46.32 l 13.23 13.24 H 413.55 L 268 248.14 L 86 86 Z" stroke-linecap="round"/>
</g>
		<g transform="matrix(1 0 0 1 43 -1.68)" id="Layer_1">
<path style="stroke: none; stroke-width: 1; stroke-dasharray: none; stroke-linecap: butt; stroke-dashoffset: 0; stroke-linejoin: miter; stroke-miterlimit: 4; is-custom-font: none; font-file-url: none; fill: rgb(37,99,235); fill-rule: nonzero; opacity: 1;" transform=" translate(-294.435, -249.755)" d="M 350.7 86 H 86 L 413.55 413.51 h 89.32 V 208.4 L 397 102.52 C 382.12 87.62 368.92 86 350.7 86 Z" stroke-linecap="round"/>
</g>
		<g transform="matrix(1 0 0 1 -150.505 -1.675)" id="Layer_1">
<path style="stroke: none; stroke-width: 1; stroke-dasharray: none; stroke-linecap: butt; stroke-dashoffset: 0; stroke-linejoin: miter; stroke-miterlimit: 4; is-custom-font: none; font-file-url: none; fill: rgb(255,255,255); fill-opacity: 0; fill-rule: nonzero; opacity: 0.2;" transform=" translate(-100.93, -249.76)" d="M 105.88 403.6 C 92.65 390.33 89.36 377.24 89.36 354 V 89.32 L 86.07 86 V 354 c 0 23.25 0 29.69 19.81 49.61 l 9.91 9.91 h 0 Z" stroke-linecap="round"/>
</g>
		<g transform="matrix(1 0 0 1 205.13 57.895)" id="Layer_1">
<polygon style="stroke: none; stroke-width: 1; stroke-dasharray: none; stroke-linecap: butt; stroke-dashoffset: 0; stroke-linejoin: miter; stroke-miterlimit: 4; is-custom-font: none; font-file-url: none; fill: rgb(38,50,56); fill-rule: nonzero; opacity: 0.2;" points="43.015,-104.22 43.015,100.89 -46.305,100.89 -43.015,104.22 46.305,104.22 46.305,-100.93 43.015,-104.22 "/>
</g>
		<g transform="matrix(1 0 0 1 -9.89 -157.155)" id="Layer_1">
<path style="stroke: none; stroke-width: 1; stroke-dasharray: none; stroke-linecap: butt; stroke-dashoffset: 0; stroke-linejoin: miter; stroke-miterlimit: 4; is-custom-font: none; font-file-url: none; fill: rgb(255,255,255); fill-opacity: 0; fill-rule: nonzero; opacity: 0.2;" transform=" translate(-241.545, -94.28)" d="M 397 102.56 C 380.61 86.14 367.19 86 347.41 86 H 86.07 l 3.29 3.29 H 347.41 c 9.87 0 34.79 -1.66 49.61 13.24 Z" stroke-linecap="round"/>
</g>
		<g transform="matrix(1 0 0 1 -0.055 -0.03)" id="Layer_1">
<radialGradient id="SVGID_5" gradientUnits="userSpaceOnUse" gradientTransform="matrix(1 0 0 1 0 -380.56)" cx="251.42" cy="631.97" r="251.4" fx="251.42" fy="631.97">
<stop offset="0%" style="stop-color:rgb(255,255,255);stop-opacity: 0.1"/>
<stop offset="100%" style="stop-color:rgb(255,255,255);stop-opacity: 0"/>
</radialGradient>
<path style="stroke: none; stroke-width: 1; stroke-dasharray: none; stroke-linecap: butt; stroke-dashoffset: 0; stroke-linejoin: miter; stroke-miterlimit: 4; is-custom-font: none; font-file-url: none; fill: url(#SVGID_5); fill-rule: nonzero; opacity: 0.2;" transform=" translate(-251.38, -251.405)" d="M 499.58 205.11 L 397 102.56 l -86 -86 C 303.49 9 287.85 0 274.61 0 c -11.38 0 -22.55 2.29 -29.76 6.62 L 86.07 86 L 6.65 251.43 C 3.81 257.46 0 267.92 0 274.58 c 0 14.45 6.36 29.2 16.52 39.7 L 95.83 393 a 92.42 92.42 0 0 0 6.73 7.32 l 3.29 3.29 l 9.9 9.91 l 86 86 l 3.29 3.29 h 208.4 V 413.51 h 89.32 V 208.4 Z" stroke-linecap="round"/>
</g>
</g>
</g>
</svg>